/* XPM */
static char *_4b7f2a3ee914260f67d38dfa7aa3fa5[] = {
/* columns rows colors chars-per-pixel */
"32 32 2 1 ",
"  c #8C43AA",
". c None",
/* pixels */
"................................",
"................................",
"................................",
"................................",
"................................",
"................................",
"........                  ......",
".....                       ....",
"....                         ...",
"...                           ..",
"..                            ..",
"..     ..................      .",
".     ....................     .",
".    ....................      .",
".    ..........               ..",
"     .........                ..",
"     .........               ...",
".    .........              ....",
".    ..........           ......",
".     ..........................",
"..    ..........................",
"..      ........................",
"...                            .",
"....                          ..",
".....                        ...",
"........                   .....",
"................................",
"................................",
"................................",
"................................",
"................................",
"................................"
};
