/* XPM */
static char *_c664eac7d1c42a6e44f539accd3a3f8[] = {
/* columns rows colors chars-per-pixel */
"128 128 2 1 ",
"  c #8C43AA",
". c None",
/* pixels */
"................................................................................................................................",
"................................................................................................................................",
"................................................................................................................................",
"................................................................................................................................",
"................................................................................................................................",
"................................................................................................................................",
"................................................................................................................................",
"................................................................................................................................",
"................................................................................................................................",
"................................................................................................................................",
"................................................................................................................................",
"................................................................................................................................",
"................................................................................................................................",
"................................................................................................................................",
"................................................................................................................................",
"................................................................................................................................",
"................................................................................................................................",
"................................................................................................................................",
"................................................................................................................................",
"................................................................................................................................",
"................................................................................................................................",
"................................................................................................................................",
"................................................................................................................................",
"................................................................................................................................",
"................................................................................................................................",
"...................................                                                                   ..........................",
"...............................                                                                           ......................",
"............................                                                                                 ...................",
".........................                                                                                     ..................",
".......................                                                                                         ................",
"......................                                                                                           ...............",
"....................                                                                                              ..............",
"...................                                                                                                 ............",
".................                                                                                                   ............",
"................                                                                                                     ...........",
"...............                                                                                                       ..........",
"..............                                                                                                         .........",
".............                                                                                                          .........",
"............                                                                                                            ........",
"...........                                                                                                             ........",
"..........                                                                                                               .......",
"..........                                                                                                               .......",
".........                           .................................................................                    .......",
"........                         .....................................................................                    ......",
"........                       ........................................................................                   ......",
".......                      ...........................................................................                  ......",
".......                    ..............................................................................                 ......",
"......                    ...............................................................................                  .....",
"......                   ................................................................................                  .....",
".....                   .................................................................................                  .....",
".....                  ..................................................................................                  .....",
".....                 ..................................................................................                   .....",
"....                  ..................................................................................                   .....",
"....                 ..................................................................................                   ......",
"....                 .................................................................................                    ......",
"....                .................................................................................                     ......",
"...                 ............................................                                                          ......",
"...                ...........................................                                                           .......",
"...                .........................................                                                             .......",
"...                ........................................                                                              .......",
"...               ........................................                                                              ........",
"...               ........................................                                                              ........",
"...               ........................................                                                             .........",
"...               .......................................                                                              .........",
"...               .......................................                                                             ..........",
"...               .......................................                                                            ...........",
"...               .......................................                                                           ............",
"...               .......................................                                                          .............",
"...               ........................................                                                        ..............",
"...               ........................................                                                       ...............",
"...               ........................................                                                      ................",
"...                ........................................                                                   ..................",
"....               .........................................                                                ....................",
"....               ..........................................                                             ......................",
"....                ............................................                                      ..........................",
"....                ............................................................................................................",
".....                ...........................................................................................................",
".....                ...........................................................................................................",
".....                 ..........................................................................................................",
"......                ..........................................................................................................",
"......                 .........................................................................................................",
".......                 ........................................................................................................",
".......                  .......................................................................................................",
"........                  ......................................................................................................",
"........                   .....................................................................................................",
".........                    ...................................................................................................",
"..........                    ..................................................................................................",
"..........                      ................................................................................................",
"...........                        .............................................................................................",
"............                                                                                                                 ...",
".............                                                                                                                ...",
"..............                                                                                                              ....",
"...............                                                                                                            .....",
"................                                                                                                         .......",
".................                                                                                                       ........",
"...................                                                                                                    .........",
"....................                                                                                                  ..........",
"......................                                                                                              ............",
".......................                                                                                           ..............",
".........................                                                                                       ................",
"............................                                                                                  ..................",
"...............................                                                                            .....................",
"...................................                                                                   ..........................",
"................................................................................................................................",
"................................................................................................................................",
"................................................................................................................................",
"................................................................................................................................",
"................................................................................................................................",
"................................................................................................................................",
"................................................................................................................................",
"................................................................................................................................",
"................................................................................................................................",
"................................................................................................................................",
"................................................................................................................................",
"................................................................................................................................",
"................................................................................................................................",
"................................................................................................................................",
"................................................................................................................................",
"................................................................................................................................",
"................................................................................................................................",
"................................................................................................................................",
"................................................................................................................................",
"................................................................................................................................",
"................................................................................................................................",
"................................................................................................................................",
"................................................................................................................................",
"................................................................................................................................",
"................................................................................................................................"
};
