/* XPM */
static char *_640d5e038a44179a485e713a96db4c9[] = {
/* columns rows colors chars-per-pixel */
"16 16 2 1 ",
"  c #8C43AA",
". c None",
/* pixels */
"................",
"................",
"................",
"...           ..",
"..             .",
".    .......   .",
"   ..........  .",
"  .....        .",
"  .....        .",
"   .....     ...",
".   ............",
"..              ",
"...           ..",
"................",
"................",
"................"
};
