/* XPM */
static char *_4ea3cc5b19647eac47884ac1c720347[] = {
/* columns rows colors chars-per-pixel */
"64 64 2 1 ",
"  c #8C43AA",
". c None",
/* pixels */
"................................................................",
"................................................................",
"................................................................",
"................................................................",
"................................................................",
"................................................................",
"................................................................",
"................................................................",
"................................................................",
"................................................................",
"................................................................",
"................................................................",
"...................                               ..............",
"..............                                        ..........",
"............                                            ........",
"..........                                               .......",
".........                                                 ......",
"........                                                   .....",
".......                                                     ....",
"......                                                      ....",
".....                                                        ...",
"....             ..................................          ...",
"....           .....................................         ...",
"...           ......................................         ...",
"...         ........................................         ...",
"..          ........................................         ...",
"..         .........................................         ...",
"..        .........................................          ...",
"..        .....................                              ...",
".        .....................                               ...",
".        ....................                               ....",
".        ....................                               ....",
".        ...................                               .....",
".        ....................                             ......",
".        ....................                            .......",
"..       ....................                           ........",
"..        ....................                        ..........",
"..        .......................                 ..............",
"..         .....................................................",
"...        .....................................................",
"...         ....................................................",
"....         ...................................................",
"....          ..................................................",
".....           ................................................",
"......              ............................................",
".......                                                       ..",
"........                                                     ...",
".........                                                   ....",
"..........                                                 .....",
"............                                             .......",
"..............                                        ..........",
"...................                               ..............",
"................................................................",
"................................................................",
"................................................................",
"................................................................",
"................................................................",
"................................................................",
"................................................................",
"................................................................",
"................................................................",
"................................................................",
"................................................................",
"................................................................"
};
