<?xml version="1.0" encoding="utf-8"?>
<!-- Generator: Adobe Illustrator 18.1.0, SVG Export Plug-In . SVG Version: 6.00 Build 0)  -->
<svg width="841.9" height="841.9" xmlns="http://www.w3.org/2000/svg" xmlns:svg="http://www.w3.org/2000/svg">
 <g class="layer">
  <title>Layer 1</title>
  <g id="svg_1">
   <path fill="#5f00bf" d="m298.6,679.3c-68.5,0 -132.9,-26.7 -181.3,-75.1s-75,-112.8 -75,-181.3s26.7,-132.9 75.1,-181.3c48.4,-48.4 112.8,-75.1 181.3,-75.1s132.9,26.7 181.3,75.1c48.4,48.4 75.1,112.8 75.1,181.3s-26.7,132.9 -75.1,181.3s-112.9,75.1 -181.4,75.1zm0,-472.7c-57.8,0 -112.1,22.5 -153,63.4c-40.9,40.9 -63.4,95.2 -63.4,153c0,57.8 22.5,112.1 63.4,153c40.9,40.9 95.2,63.4 153,63.4c57.8,0 112.1,-22.5 153,-63.4c40.9,-40.9 63.4,-95.2 63.4,-153c0,-57.8 -22.5,-112.1 -63.4,-153c-40.8,-40.9 -95.2,-63.4 -153,-63.4z" id="svg_2"/>
  </g>
  <path fill="#3f007f" d="m293.5,452.6l99.6,0c14.9,0 24.8,-9.9 24.8,-24.8s-9.9,-24.8 -24.8,-24.8l-74.8,0l0,-124.8c0,-14.9 -9.9,-24.8 -24.8,-24.8c-14.9,0 -24.8,9.9 -24.8,24.8l0,149.6c0,12.4 10,24.8 24.8,24.8z" id="svg_3"/>
 </g>
</svg>