<?xml version="1.0" encoding="UTF-8" standalone="no"?>
<svg width="841.9" height="841.9" xmlns="http://www.w3.org/2000/svg" xmlns:svg="http://www.w3.org/2000/svg">
 <metadata id="metadata15">image/svg+xml</metadata>

 <g class="layer">
  <title>Layer 1</title>
  <g id="g3">
   <path fill="#3f007f" d="m297.6,677.3c-68.5,0 -132.9,-26.7 -181.3,-75.1s-75,-112.8 -75,-181.3s26.7,-132.9 75.1,-181.3c48.4,-48.4 112.8,-75.1 181.3,-75.1s132.9,26.7 181.3,75.1c48.4,48.4 75.1,112.8 75.1,181.3s-26.7,132.9 -75.1,181.3s-112.9,75.1 -181.4,75.1zm0,-472.7c-57.8,0 -112.1,22.5 -153,63.4c-40.9,40.9 -63.4,95.2 -63.4,153c0,57.8 22.5,112.1 63.4,153c40.9,40.9 95.2,63.4 153,63.4c57.8,0 112.1,-22.5 153,-63.4c40.9,-40.9 63.4,-95.2 63.4,-153c0,-57.8 -22.5,-112.1 -63.4,-153c-40.8,-40.9 -95.2,-63.4 -153,-63.4z" id="path5"/>
  </g>
  <path fill="#3f007f" d="m297.6,184.6l-167.5,55.7l-68.8,180.6l55.7,167.6l180.6,68.8l167.6,-55.7l68.8,-180.7l-55.7,-167.5l-180.7,-68.8zm-4.1,68.8c14.9,0 24.8,9.9 24.8,24.8l0,124.8l74.8,0c14.9,0 24.8,9.9 24.8,24.8c0,14.9 -9.9,24.8 -24.8,24.8l-99.6,0c-14.8,0 -24.8,-12.4 -24.8,-24.8l0,-149.6c0,-14.9 9.9,-24.8 24.8,-24.8z" id="polygon7"/>
 </g>
</svg>