<svg width="24" height="24" xmlns="http://www.w3.org/2000/svg" xmlns:svg="http://www.w3.org/2000/svg">
 <metadata id="metadata10">image/svg+xml</metadata>

 <g class="layer">
  <title>Layer 1</title>
  <g transform="matrix(0,-1,-1,0,23.96,24)" id="g4142">
   <g id="g4210" transform="matrix(-1,0,0,1,59.86,-106.6)">
    <g id="g4289" transform="matrix(-1,0,0,1,-16.98,0.8136)">
     <g id="g4291">
      <path fill="#3f007f" d="m-64.85,116.2a0.6001,0.6001 0 0 0 -0.6,0.6l0,2a0.6001,0.6001 0 0 0 0.6,0.6c0.48,0 0.9,0.4 0.9,0.9l0,2.4c-1.18,0.6 -2,1.8 -2,3.2c0,2 1.64,3.6 3.6,3.6c1.97,0 3.6,-1.6 3.6,-3.6c0,-1.4 -0.83,-2.6 -2,-3.2l0,-2.4c0,-2.3 -1.86,-4.1 -4.1,-4.1z" id="path4153"/>
      <g id="g4295">
       <path fill="#3f007f" d="m-67.35,106c-2,0 -3.6,1.7 -3.6,3.6c0,1.4 0.83,2.6 2,3.2l0,2.5c0,2.2 1.84,4.1 4.1,4.1a0.6001,0.6001 0 0 0 0.6,-0.6l0,-2a0.6001,0.6001 0 0 0 -0.6,-0.6c-0.49,0 -0.9,-0.4 -0.9,-0.9l0,-2.5c1.17,-0.6 2,-1.8 2,-3.2c0,-1.9 -1.61,-3.6 -3.6,-3.6z" id="path4149"/>
       <path fill="#3f007f" d="m-57.35,106c-1.99,0 -3.6,1.7 -3.6,3.6c0,1.4 0.83,2.6 2,3.2l0,2.5c0,0.5 -0.41,0.9 -0.9,0.9l-4.35,0a0.6001,0.6001 0 0 0 -0.6,0.6l0,2a0.6001,0.6001 0 0 0 0.6,0.6l4.35,0c2.26,0 4.1,-1.9 4.1,-4.1l0,-2.5c1.17,-0.6 2,-1.8 2,-3.2c0,-1.9 -1.6,-3.6 -3.6,-3.6z" id="path4147"/>
      </g>
      <path fill="#3f007f" d="m-69.84,116.2c-2.24,0 -4.1,1.8 -4.1,4.1l0,2.5c-1.17,0.5 -1.99,1.7 -1.99,3.1c0,2 1.64,3.6 3.61,3.6c1.96,0 3.6,-1.6 3.6,-3.6c0,-1.4 -0.83,-2.6 -2,-3.2l0,-2.4c0,-0.5 0.41,-0.9 0.9,-0.9l4.51,0a0.6001,0.6001 0 0 0 0.6,-0.6l0,-2a0.6001,0.6001 0 0 0 -0.6,-0.6l-4.53,0z" id="path4155"/>
     </g>
    </g>
   </g>
  </g>
  <path fill="#3f007f" stroke-width="10" stroke-miterlimit="4" d="m15.2,12c0,-0.84 -0.4,-1.65 -1,-2.24c-0.5,-0.64 -1.3,-0.96 -2.2,-0.96c-0.9,0 -1.7,0.32 -2.2,0.96c-0.6,0.59 -1,1.4 -1,2.24c0,0.84 0.4,1.65 1,2.24c0.5,0.64 1.3,0.96 2.2,0.96c0.9,0 1.7,-0.32 2.2,-0.96c0.6,-0.59 1,-1.4 1,-2.24z" id="path4170"/>
 </g>
</svg>