<svg width="24" height="24" xmlns="http://www.w3.org/2000/svg" xmlns:svg="http://www.w3.org/2000/svg">
 <metadata id="metadata10">image/svg+xml</metadata>

 <g class="layer">
  <title>Layer 1</title>
  <g id="g4210">
   <g transform="matrix(0 -1 -1 0 23.96 23.75)" id="g4142">
    <g transform="matrix(-1 0 0 1 59.86 -106.6)" id="g4213">
     <g transform="matrix(-1 0 0 1 -16.98 0.8136)" id="g4289">
      <g id="g4291">
       <path fill="#3f007f" clip-rule="nonzero" fill-rule="nonzero" stroke-miterlimit="4" stroke-dashoffset="0" id="path4293" d="m-65.6,116.3l0,3l0.5,0c0.54,0 1,0.5 1,1l0,2.6c-1.15,0.5 -2,1.6 -2,3c0,2 1.59,3.5 3.5,3.5c1.91,0 3.5,-1.5 3.5,-3.5c0,-1.4 -0.85,-2.5 -2,-3l0,-2.6c0,-2.3 -1.81,-4 -4,-4l-0.5,0zm1,1.2c1.39,0.3 2.5,1.3 2.5,2.8l0,3.2l0.34,0.1c0.96,0.3 1.66,1.2 1.66,2.3c0,1.4 -1.11,2.5 -2.5,2.5c-1.39,0 -2.5,-1.1 -2.5,-2.5c0,-1.1 0.69,-2 1.66,-2.3l0.34,-0.1l0,-3.2c0,-0.9 -0.67,-1.5 -1.5,-1.8l0,-1z"/>
       <g id="g4295">
        <path fill="#3f007f" clip-rule="nonzero" fill-rule="nonzero" stroke-miterlimit="4" stroke-dashoffset="0" id="path4297" d="m-67.6,106.1c-1.94,0 -3.5,1.6 -3.5,3.5c0,1.4 0.85,2.5 2,3l0,2.7c0,2.2 1.79,4 4,4l0.5,0l0,-0.5l0,-2.5l-0.5,0c-0.55,0 -1,-0.5 -1,-1l0,-2.7c1.15,-0.5 2,-1.6 2,-3c0,-1.9 -1.57,-3.5 -3.5,-3.5zm0,1c1.37,0 2.5,1.2 2.5,2.5c0,1.1 -0.7,2 -1.66,2.3l-0.34,0.1l0,3.3c0,0.9 0.67,1.5 1.5,1.8l0,1c-1.38,-0.3 -2.5,-1.4 -2.5,-2.8l0,-3.3l-0.34,-0.1c-0.96,-0.3 -1.66,-1.2 -1.66,-2.3c0,-1.3 1.12,-2.5 2.5,-2.5z"/>
        <path fill="#3f007f" d="m-57.6,106c-1.99,0 -3.6,1.7 -3.6,3.6c0,1.4 0.83,2.6 2,3.2l0,2.5c0,0.5 -0.41,0.9 -0.9,0.9l-4.35,0a0.6001,0.6001 0 0 0 -0.6,0.6l0,2a0.6001,0.6001 0 0 0 0.6,0.6l4.35,0c2.26,0 4.1,-1.9 4.1,-4.1l0,-2.5c1.17,-0.6 2,-1.8 2,-3.2c0,-1.9 -1.6,-3.6 -3.6,-3.6z" id="path4145"/>
       </g>
       <path fill="#3f007f" clip-rule="nonzero" fill-rule="nonzero" stroke-miterlimit="4" stroke-dashoffset="0" id="path4301" d="m-70.09,116.3c-2.19,0 -4,1.7 -4,4l0,2.6c-1.14,0.6 -1.99,1.6 -1.99,3c0,2 1.6,3.5 3.51,3.5c1.91,0 3.5,-1.5 3.5,-3.5c0,-1.4 -0.85,-2.5 -2,-3l0,-2.6c0,-0.5 0.45,-1 1,-1l5.01,0l-3.34,-3l-1.69,0zm0,1l2.02,0l2.01,1l-4.01,0c-1.11,0 -2,0.9 -2,2l0,3.2l0.34,0.1c0.96,0.3 1.66,1.2 1.66,2.3c0,1.4 -1.11,2.5 -2.5,2.5c-1.39,0 -2.51,-1.1 -2.51,-2.5c0,-1.1 0.7,-2 1.66,-2.3l0.33,-0.1l0,-0.4l0,-2.8c0,-1.7 1.33,-3 3,-3z"/>
      </g>
     </g>
    </g>
    <path fill="#3f007f" stroke-width="10" stroke-miterlimit="4" d="m11.75,8.764c-0.84,0 -1.67,0.336 -2.264,0.931a0.6001,0.6001 0 0 0 0,0c-0.598,0.595 -0.934,1.415 -0.935,2.265c0,0.85 0.337,1.67 0.933,2.26a0.6001,0.6001 0 0 0 0,0c0.594,0.6 1.424,0.94 2.264,0.94c0.84,0 1.67,-0.34 2.26,-0.94c0.6,-0.59 0.94,-1.41 0.94,-2.26c0,-0.84 -0.34,-1.67 -0.94,-2.265c-0.588,-0.595 -1.418,-0.931 -2.258,-0.931z" id="path4173"/>
   </g>
  </g>
 </g>
</svg>