<svg width="24" height="24" xmlns="http://www.w3.org/2000/svg" xmlns:svg="http://www.w3.org/2000/svg">
 <metadata id="metadata10">image/svg+xml</metadata>

 <g class="layer">
  <title>Layer 1</title>
  <g id="g4160">
   <g transform="matrix(0 1 -1 0 130.3 -36.15)" id="g4210">
    <g transform="matrix(-1 0 0 1 -16.98 0.8136)" id="g4289">
     <g id="g4291">
      <path fill="#3f007f" d="m-65.14,115.9364a0.6001,0.6001 0 0 0 -0.6,0.6l0,2a0.6001,0.6001 0 0 0 0.6,0.6c0.48,0 0.9,0.4 0.9,0.9l0,2.4c-1.18,0.6 -2,1.8 -2,3.2c0,2 1.64,3.6 3.6,3.6c1.97,0 3.6,-1.6 3.6,-3.6c0,-1.4 -0.83,-2.6 -2,-3.2l0,-2.4c0,-2.3 -1.86,-4.1 -4.1,-4.1z" id="path4147"/>
      <g id="g4295">
       <path fill="#3f007f" clip-rule="nonzero" fill-rule="nonzero" stroke-miterlimit="4" stroke-dashoffset="0" id="path4297" d="m-67.64,105.8364c-1.94,0 -3.5,1.6 -3.5,3.5c0,1.4 0.85,2.5 2,3l0,2.7c0,2.2 1.79,4 4,4l0.5,0l0,-0.5l0,-2.5l-0.5,0c-0.55,0 -1,-0.5 -1,-1l0,-2.7c1.15,-0.5 2,-1.6 2,-3c0,-1.9 -1.57,-3.5 -3.5,-3.5zm0,1c1.37,0 2.5,1.2 2.5,2.5c0,1.1 -0.7,2 -1.66,2.3l-0.34,0.1l0,3.3c0,0.9 0.67,1.5 1.5,1.8l0,1c-1.38,-0.3 -2.5,-1.4 -2.5,-2.8l0,-3.3l-0.34,-0.1c-0.96,-0.3 -1.66,-1.2 -1.66,-2.3c0,-1.3 1.12,-2.5 2.5,-2.5z"/>
       <path fill="#3f007f" d="m-57.64,105.7364c-1.99,0 -3.6,1.7 -3.6,3.6c0,1.4 0.83,2.6 2,3.2l0,2.5c0,0.5 -0.41,0.9 -0.9,0.9l-4.35,0a0.6001,0.6001 0 0 0 -0.6,0.6l0,2a0.6001,0.6001 0 0 0 0.6,0.6l4.35,0c2.26,0 4.1,-1.9 4.1,-4.1l0,-2.5c1.17,-0.6 2,-1.8 2,-3.2c0,-1.9 -1.6,-3.6 -3.6,-3.6z" id="path4145"/>
      </g>
      <path fill="#3f007f" d="m-70.13,115.9364c-2.24,0 -4.1,1.8 -4.1,4.1l0,2.5c-1.17,0.5 -1.99,1.7 -1.99,3.1c0,2 1.64,3.6 3.61,3.6c1.96,0 3.6,-1.6 3.6,-3.6c0,-1.4 -0.83,-2.6 -2,-3.2l0,-2.4c0,-0.5 0.41,-0.9 0.9,-0.9l4.51,0a0.6001,0.6001 0 0 0 0.6,-0.6l0,-2a0.6001,0.6001 0 0 0 -0.6,-0.6l-4.53,0z" id="path4149"/>
     </g>
    </g>
   </g>
   <g id="g4142" transform="matrix(0 1 1 0 -106.3 -36.15)">
    <g id="g4144" transform="matrix(-1 0 0 1 -16.98 0.8136)"/>
   </g>
  </g>
  <path fill="#3f007f" stroke-width="10" stroke-miterlimit="4" d="m15.2,12c0,-0.84 -0.4,-1.65 -1,-2.242c-0.5,-0.64 -1.3,-0.96 -2.2,-0.96c-0.9,0 -1.7,0.32 -2.2,0.96c-0.6,0.592 -1,1.402 -1,2.242c0,0.84 0.4,1.65 1,2.24c0.5,0.64 1.3,0.96 2.2,0.96c0.9,0 1.7,-0.32 2.2,-0.96c0.6,-0.59 1,-1.4 1,-2.24z" id="path4170"/>
 </g>
</svg>