<svg width="595.3" height="841.9" xmlns="http://www.w3.org/2000/svg" xmlns:svg="http://www.w3.org/2000/svg">
 <g class="layer">
  <title>Layer 1</title>
  <g id="svg_1">
   <path stroke="#3f007f" fill="#5f00bf" id="svg_2" d="m81.3,336.5l0,66.8l70.4,0l0,-66.8l38.3,0l0,174l-38.3,0l0,-75.1l-70.4,0l0,75.1l-38.3,0l0,-174l38.3,0z"/>
   <path stroke="#3f007f" fill="#5f00bf" id="svg_3" d="m298.7,336.5c11.2,0 21.6,1.8 31.3,5.4c9.7,3.6 18,8.9 25.1,16.1c7.1,7.2 12.6,16.1 16.6,26.8c4,10.7 6,23.3 6,37.8c0,12.7 -1.6,24.4 -4.9,35.1c-3.3,10.7 -8.2,20 -14.7,27.8c-6.6,7.8 -14.8,13.9 -24.6,18.4c-9.8,4.5 -21.4,6.7 -34.7,6.7l-75.1,0l0,-174l75,0l0,-0.1zm-2.7,141.8c5.5,0 10.9,-0.9 16.1,-2.7c5.2,-1.8 9.8,-4.8 13.9,-8.9c4.1,-4.1 7.3,-9.5 9.7,-16.2c2.4,-6.7 3.7,-14.8 3.7,-24.4c0,-8.8 -0.9,-16.7 -2.6,-23.8s-4.5,-13.1 -8.4,-18.2c-3.9,-5 -9.1,-8.9 -15.5,-11.6c-6.4,-2.7 -14.3,-4 -23.8,-4l-27.3,0l0,109.7l34.2,0l0,0.1z"/>
  </g>
  <g id="svg_4">
   <g id="svg_5">
    <line stroke="#3f007f" fill="#5f00bf" id="svg_6" y2="293.9" x2="357" y1="555.9" x1="31"/>
   </g>
   <g id="svg_7">
    <path stroke="#3f007f" id="svg_8" d="m31,580.9c-7.3,0 -14.6,-3.2 -19.5,-9.3c-8.6,-10.8 -6.9,-26.5 3.8,-35.1l326,-262c10.8,-8.6 26.5,-6.9 35.1,3.8c8.6,10.8 6.9,26.5 -3.8,35.1l-326,262c-4.6,3.7 -10.1,5.5 -15.6,5.5z" fill="#5f00bf"/>
   </g>
   <g id="svg_9">
    <path stroke="#3f007f" fill="#5f00bf" id="svg_10" d="m31,573.9c-5.3,0 -10.5,-2.3 -14,-6.7c-6.2,-7.7 -5,-19.1 2.8,-25.3l326,-262c7.8,-6.2 19.1,-5 25.3,2.8c6.2,7.7 5,19.1 -2.8,25.3l-326,262c-3.3,2.6 -7.3,3.9 -11.3,3.9z"/>
   </g>
  </g>
 </g>
</svg>