<svg width="23.999999999999996" height="23.999999999999996" xmlns="http://www.w3.org/2000/svg" xmlns:svg="http://www.w3.org/2000/svg">
 <metadata id="metadata10">image/svg+xml</metadata>

 <g class="layer">
  <title>Layer 1</title>
  <g transform="matrix(0,-1,-1,0,23.96,24)" id="g4142">
   <g transform="matrix(-1,0,0,1,59.86,-106.6)" id="g4210">
    <g transform="matrix(-1,0,0,1,-16.98,0.8136)" id="g4289">
     <g id="g4291">
      <path clip-rule="nonzero" fill="#5f00bf" fill-opacity="0.5" fill-rule="nonzero" stroke="#3f007f" stroke-miterlimit="4" stroke-dashoffset="0" d="m20.14648,1.00977c-1.4,0 -2.5,0.85 -3,2l-2.69921,0c-2.2,0 -4,1.79 -4,4l0,1.13281c-0.31899,-0.07914 -0.6492,-0.13281 -1,-0.13281l-2.60157,0c-0.5,-1.15 -1.6,-2 -3,-2c-2,0 -3.5,1.59 -3.5,3.5c0,1.91 1.5,3.5 3.5,3.5c1.4,0 2.5,-0.85 3,-2l2.12891,0c-0.10526,0.32029 -0.17383,0.65357 -0.17383,0.99218c0,0.84 0.33945,1.66968 0.93945,2.26368c0.20771,0.20981 0.45105,0.37536 0.70704,0.51757l0,2.19727c0,0.55 -0.5,1 -1,1l-2.60157,0c-0.5,-1.15 -1.6,-2 -3,-2c-2,0 -3.5,1.59 -3.5,3.5c0,1.91 1.5,3.50976 3.5,3.50976c1.4,0 2.4,-0.85023 3,-1.99023l2.60157,0c2.3,0 4,-1.81 4,-4l0,-1.13086c0.32123,0.08348 0.65343,0.14063 1,0.14063l2.69921,0c0.5,1.15 1.6,2 3,2c1.9,0 3.5,-1.56 3.5,-3.5c0,-1.93 -1.6,-3.5 -3.5,-3.5c-1.4,0 -2.5,0.85 -3,2l-2.13671,0c0.10985,-0.32504 0.17968,-0.66351 0.17968,-1.00977c0,-0.84 -0.33954,-1.66005 -0.93554,-2.24805c-0.23501,-0.24174 -0.51322,-0.4275 -0.80664,-0.58007l0,-2.16211c0,-0.55 0.5,-1 1,-1l2.69921,0c0.5,1.15 1.6,2 3,2c1.9,0 3.5,-1.57 3.5,-3.5c0,-1.94 -1.6,-3.5 -3.5,-3.5zm0,1c1.3,0 2.5,1.12 2.5,2.5c0,1.37 -1.2,2.5 -2.5,2.5c-1.1,0 -2.00078,-0.70016 -2.30078,-1.66016l-0.09961,-0.33984l-3.29882,0c-1.1,0 -2,0.89 -2,2l0,1.83789c-0.14827,-0.0215 -0.29652,-0.04493 -0.44727,-0.04493c-0.04555,0 -0.08942,0.01174 -0.13477,0.01368c-0.13207,-0.09969 -0.27278,-0.1867 -0.41796,-0.26953l0,-1.53711c0,-1.65 1.4,-3 3,-3l3.29882,0l0.09961,-0.33985c0.3,-0.96 1.20078,-1.66015 2.30078,-1.66015zm-16.30078,5c1.1,0 2.00078,0.70015 2.30078,1.66015l0.09961,0.33985l3.20118,0c0.375,0 0.71796,0.06953 1.02734,0.19531c-0.26666,0.14578 -0.5192,0.31829 -0.73438,0.53711c-0.08475,0.08334 -0.1524,0.18116 -0.22656,0.27344c-0.02276,-0.00088 -0.04324,-0.00586 -0.0664,-0.00586l-3.20118,0l-0.09961,0.33984c-0.3,0.97 -1.20078,1.66016 -2.30078,1.66016c-1.4,0 -2.5,-1.11 -2.5,-2.5c0,-1.39 1.1,-2.5 2.5,-2.5zm16.30078,5c1.3,0 2.5,1.13 2.5,2.5c0,1.38 -1.2,2.5 -2.5,2.5c-1.1,0 -2.00078,-0.70016 -2.30078,-1.66016l-0.09961,-0.33984l-3.29882,0c-0.34631,0 -0.67454,-0.06932 -0.97657,-0.19336c0.28406,-0.15023 0.55384,-0.33082 0.78321,-0.5625c0.075,-0.07476 0.13246,-0.16264 0.19922,-0.24414l3.29296,0l0.09961,-0.33985c0.3,-0.96 1.20078,-1.66015 2.30078,-1.66015zm-8.69921,3.13476c0.18173,0.03171 0.36598,0.05469 0.55273,0.05469c0.01854,-0.00007 0.03618,-0.00547 0.05469,-0.00586c0.12575,0.09473 0.25601,0.18014 0.39258,0.25977l0,1.54687c0,1.67 -1.3,3 -3,3l-2.80079,0l-0.40039,0l-0.09961,0.33008c-0.3,0.96 -1.20078,1.66015 -2.30078,1.66015c-1.4,0 -2.5,-1.11976 -2.5,-2.50976c0,-1.39 1.1,-2.5 2.5,-2.5c1.1,0 2.00078,0.70015 2.30078,1.66016l0.09961,0.33984l3.20118,0c1.1,0 2,-0.89 2,-2l0,-1.83594z" transform="matrix(0,-1,-1,0,-52.84,129.7464)" id="path4293"/>
     </g>
    </g>
   </g>
  </g>
  <path fill="#5f00bf" id="svg_1" stroke-width="3" stroke="#ff0000" stroke-linecap="round" d="m3,3l18,18"/>
  <path fill="#5f00bf" id="svg_2" stroke-width="3" stroke="#ff0000" stroke-linecap="round" d="m21,3l-18,18"/>
 </g>
</svg>