<svg width="609.4" height="609.4" xmlns="http://www.w3.org/2000/svg" xmlns:svg="http://www.w3.org/2000/svg">
 <metadata id="metadata13">image/svg+xml</metadata>

 <g class="layer">
  <title>Layer 1</title>
  <g transform="matrix(2.553 0 0 2.553 -2149 281.5)" id="g4151">
   <path fill="#00bf5f" fill-rule="nonzero" d="m153.7,16.9c-38.7,-0.46 -84,14.77 -85.74,69.91l0,463.89l37.04,41.7l390.9,-65.7c25.5,-4.6 46,-36.5 46,-70.8l0,-378.13l-358.5,-58.8c-4,-0.67 -22,-1.97 -25.9,-1.98c-1.3,-0.05 -2.5,-0.08 -3.8,-0.09zm119.8,107.2c4.6,0 9.2,0.2 13.8,0.8l0,0.1c32.7,3.8 56.4,19.2 72,45.9c15.3,26.2 22.7,63.7 22.7,113.1c0,45.2 -5.6,80.7 -16.6,106.7c-11.2,26.5 -28.3,43.9 -52,52.1c2.5,12.2 6.1,20.4 10.7,24.7c2.8,2.3 6.6,3.9 11.2,4.4l0.3,0l0.7,0l5.2,0c2,0 3,0.5 6.8,0l0,36l-16.3,2.3c-4.8,0.5 -9.4,0.7 -13.8,0.7c-14.3,0 -25.8,-3.3 -34.7,-10.4c-11.5,-9.2 -19.9,-27.1 -25.3,-53.4c-25,-5.3 -44.7,-21.2 -58.2,-48c-13.5,-27 -20.7,-66.9 -20.7,-118.7c0,-55.9 9.7,-97.2 28.4,-123.4c16.1,-22.1 38,-32.9 65.8,-32.9zm150.9,19.4l30.7,3.4l0,55.3l33.1,2.6l0,34.7l-33.1,-1.7l0,126.9c0,10.9 2.5,18.1 5.1,21.4c0,2.8 5.1,4.3 7.6,4.3l2.6,0c7.6,-0.5 15.3,-2.5 23,-6.3l0,31.6c-15.4,6.4 -28.1,10 -43.4,11.2c0,0.3 -2.6,0.3 -5.2,0.3c-12.7,0 -20.4,-3.6 -28,-10.7c-7.7,-8.4 -12.8,-22 -12.8,-40.4l0,-140.5l-13.8,-0.8l0,-37.2l21.5,1.5l12.7,-55.6zm-139.9,22.9c-12,0 -21.2,6.9 -27.6,20.9c-6.8,15.2 -10.2,46.6 -10.2,94.4c0,45.9 3.4,78.6 10.2,97.8c6.4,18.3 16.1,27.3 28.9,27.3l1.5,0c12.8,-0.8 22.2,-9.7 28.9,-26.3c6.4,-16.6 9.4,-49 9.4,-97.5c0,-43.6 -3,-73.5 -9.4,-90c-6.4,-16.6 -16.1,-25.5 -28.9,-26.6l-2.8,0z" transform="matrix(0.3917,0,0,0.3917,841.8,-110.3)" id="path26"/>
  </g>
 </g>
</svg>