<svg width="128" height="127.9" xmlns="http://www.w3.org/2000/svg" xmlns:svg="http://www.w3.org/2000/svg">

 <metadata id="metadata4147">image/svg+xml</metadata>
 <g class="layer">
  <title>Layer 1</title>
  <g id="layer1">
   <path fill="#3f007f" d="m64.40001,12.19999c-12.7,-0.7 -24.9,9.1 -27,21.7c-3.8,8.8 7.2,13.7 13.7,9.2c3.1,-7.5 9.4,-17.9 18.9,-11.6c9.7,6.1 2.1,17.6 -3,24.1c-6.1,7.8 -11.4,14.8 -8.9,23c5.4,17.7 10.8,3.7 12.8,-0.1c4.3,-8.2 6,-8.8 11.5,-16.1c6.4,-8.6 11.6,-19.9 7.7,-30.8c-2.8,-11.5 -13.9,-19.9 -25.7,-19.4zm-0.7,84.7c-11.4,2.4 -9.1,19.5 2.7,17.1c11.8,-2.4 8.7,-19.5 -2.7,-17.1z" id="path4792"/>
  </g>
 </g>
</svg>