<svg width="24" height="24" xmlns="http://www.w3.org/2000/svg" xmlns:svg="http://www.w3.org/2000/svg">
 <g class="layer">
  <title>Layer 1</title>
  <path fill="#3f007f" id="svg_1" d="m13,17.5c-2.5,0 -4.5,-2 -4.5,-4.5c0,-0.6 -0.4,-1 -1,-1s-1,0.4 -1,1c0,3.6 2.9,6.5 6.5,6.5s6.5,-2.9 6.5,-6.5s-2.9,-6.5 -6.5,-6.5c-0.6,0 -1,0.4 -1,1s0.4,1 1,1c2.5,0 4.5,2 4.5,4.5s-2,4.5 -4.5,4.5zm-9.3,-7.2c-0.6,0 -1,-0.4 -1,-1s0.4,-1 1,-1l3.3,0l-1.7,-1.7l-4.1,-4.1c-0.4,-0.4 -0.4,-1 0,-1.4c0.2,-0.2 0.4,-0.3 0.7,-0.3s0.5,0.1 0.7,0.3l4.1,4.1l1.7,1.7l0,-3.3c0,-0.6 0.4,-1 1,-1s1,0.4 1,1l0,6.7l-6.7,0"/>
 </g>
</svg>