<svg width="841.9" height="595.3" xmlns="http://www.w3.org/2000/svg" xmlns:svg="http://www.w3.org/2000/svg">
 <g class="layer">
  <title>Layer 1</title>
  <path fill="#3f007f" id="svg_1" d="m654.1,317.5c-14.9,-9.9 -37.2,-2.5 -44.6,12.4l-62,111.6l-34.7,-34.7c-12.4,-12.4 -34.7,-12.4 -47.1,0c-12.4,12.4 -12.4,34.7 0,47.1l67,67c7.4,7.4 14.9,9.9 22.3,9.9l5,0c9.9,-2.5 19.8,-7.4 24.8,-17.4l81.9,-148.8c9.7,-17.4 4.8,-37.2 -12.6,-47.1z"/>
  <path fill="#3f007f" id="svg_2" d="m326.7,471.3l-148.8,0l0,-109.2l94.3,-94.3c-5,-14.9 -7.4,-29.8 -7.4,-44.6c0,-81.9 67,-148.8 148.8,-148.8s148.8,67 148.8,148.8s-67,148.8 -148.8,148.8l-37.2,0l0,49.6l-49.6,0l-0.1,49.7l0,0zm-99.2,-49.6l49.6,0l0,-49.6l49.6,0l0,-49.6l86.8,0c54.6,0 99.2,-44.6 99.2,-99.2s-44.6,-99.3 -99.2,-99.3s-99.2,44.6 -99.2,99.2c0,14.9 2.5,27.3 9.9,39.7l7.4,14.9l-101.6,101.7l0,42.2l-2.5,0zm186,-223.3c14.9,0 24.8,9.9 24.8,24.8c0,14.9 -9.9,24.8 -24.8,24.8c-14.9,0 -24.8,-9.9 -24.8,-24.8c0,-14.9 12.4,-24.8 24.8,-24.8m0,-24.8c-27.3,0 -49.6,22.3 -49.6,49.6c0,27.3 22.3,49.6 49.6,49.6c27.3,0 49.6,-22.3 49.6,-49.6c0,-27.3 -19.8,-49.6 -49.6,-49.6z"/>
 </g>
</svg>